<svg width="22" height="22" viewBox="0 0 22 22" fill="none" xmlns="http://www.w3.org/2000/svg">
<circle cx="11" cy="11" r="10.5" stroke="#4F4F4E"/>
<path d="M16.8333 13.8699V15.6199C16.834 15.7824 16.8007 15.9432 16.7356 16.092C16.6705 16.2409 16.5751 16.3745 16.4554 16.4843C16.3357 16.5941 16.1943 16.6778 16.0404 16.7298C15.8865 16.7819 15.7235 16.8012 15.5617 16.7866C13.7667 16.5915 12.0424 15.9781 10.5275 14.9957C9.11807 14.1001 7.92311 12.9052 7.0275 11.4957C6.04166 9.97393 5.42814 8.24131 5.23667 6.43823C5.22209 6.27692 5.24126 6.11434 5.29296 5.96084C5.34466 5.80735 5.42775 5.6663 5.53695 5.54667C5.64615 5.42705 5.77905 5.33147 5.92721 5.26603C6.07537 5.20059 6.23553 5.16671 6.3975 5.16656H8.1475C8.4306 5.16377 8.70505 5.26402 8.9197 5.44862C9.13435 5.63322 9.27455 5.88957 9.31417 6.16989C9.38803 6.72993 9.52501 7.27982 9.7225 7.80906C9.80099 8.01785 9.81797 8.24476 9.77145 8.46291C9.72492 8.68105 9.61684 8.88129 9.46 9.03989L8.71917 9.78073C9.54958 11.2411 10.7588 12.4503 12.2192 13.2807L12.96 12.5399C13.1186 12.3831 13.3188 12.275 13.537 12.2284C13.7551 12.1819 13.982 12.1989 14.1908 12.2774C14.7201 12.4749 15.27 12.6119 15.83 12.6857C16.1134 12.7257 16.3722 12.8684 16.5571 13.0868C16.7421 13.3051 16.8404 13.5838 16.8333 13.8699Z" fill="#4F4F4E"/>
</svg>
