<svg width="72" height="50" viewBox="0 0 72 50" fill="none" xmlns="http://www.w3.org/2000/svg">
<g clip-path="url(#clip0_70_137)">
<path d="M71.613 16.0874C71.5428 15.5717 71.2334 14.8497 70.1669 14.3428C68.3938 13.5002 66.4583 12.7014 64.2463 11.9026C62.9209 11.4242 61.591 11.67 60.3424 11.9641C58.7822 12.3305 57.0135 12.7453 55.2755 13.1842C51.3431 14.1739 47.3689 15.2338 43.5024 16.2673L43.3378 16.1949C42.7233 15.9206 42.1594 15.6836 41.613 15.451C40.5245 14.9902 39.5831 14.593 38.7185 14.108C36.3288 12.7672 34.1453 13.4519 32.2866 14.198C32.0452 14.2945 31.3079 14.5908 31.0797 15.3567C30.8515 16.1225 31.3057 16.7677 31.4747 17.0091C31.9421 17.674 32.3964 18.374 32.8287 19.0872C29.0125 20.0725 25.1657 21.0205 21.3342 21.8741C19.2188 22.3437 17.5664 22.0233 15.9732 20.8318C15.3983 20.4016 14.8102 20.033 14.2067 19.6621C13.5901 19.2825 12.833 18.9204 11.9026 19.1201C11.0402 19.3044 10.1756 19.5041 9.26048 19.7148C8.87426 19.8048 8.47487 19.8947 8.05793 19.9913L6.03467 20.4521L7.55541 21.8653C8.2664 22.5259 8.96204 23.1644 9.64231 23.7898C11.1894 25.2118 12.6509 26.5526 14.0641 27.9439C15.7253 29.5787 17.6827 30.259 20.0483 30.0242C24.8585 29.548 29.6314 28.633 34.503 27.652C34.2682 29.4778 34.097 31.3255 33.9259 33.2171C33.9215 33.2588 33.9149 33.3049 33.9083 33.3532C33.8535 33.7328 33.7481 34.4394 34.2726 34.988C34.4811 35.2075 34.8453 35.451 35.4378 35.451C35.5081 35.451 35.5827 35.4467 35.6595 35.4401C35.8679 35.4203 36.0764 35.405 36.2849 35.3874C37.7859 35.2733 39.6511 35.1307 40.9941 33.3751C41.9399 32.1353 42.9362 30.891 43.8996 29.6885C44.9485 28.3784 46.0325 27.0244 47.0661 25.6573C47.5072 25.0758 47.9702 24.7905 48.78 24.6018L50.0066 24.3187C55.7999 22.9801 61.7885 21.5954 67.5818 19.7653L67.6674 19.7389C68.6066 19.4427 69.6687 19.1069 70.5641 18.3279C71.5625 17.4589 71.6832 16.6272 71.6108 16.0852L71.613 16.0874ZM37.6432 16.0216C38.2511 16.3617 38.8655 16.6536 39.5195 16.9432C37.9088 17.3646 36.3661 17.7683 34.8497 18.1875C34.4196 17.4655 33.9676 16.7589 33.5002 16.0808C35.1482 15.4576 36.3397 15.2908 37.6432 16.0216ZM69.1267 16.6755C68.5759 17.1539 67.8144 17.3953 67.0091 17.6476L66.9235 17.674C61.2136 19.4756 55.2667 20.8515 49.5151 22.1813L48.2862 22.4644C46.9827 22.7672 46.0676 23.3422 45.3172 24.3341C44.3011 25.6771 43.2259 27.02 42.1857 28.317C41.2158 29.5305 40.2107 30.7835 39.2496 32.0431C38.5429 32.9691 37.6037 33.0854 36.1335 33.1996C36.3024 31.3299 36.4758 29.5019 36.7106 27.7135C36.7567 27.3602 36.8796 26.421 36.2256 25.8109C35.857 25.4664 35.4005 25.3742 35.0033 25.3742C34.6939 25.3742 34.4196 25.4291 34.2463 25.4642C29.3724 26.4473 24.6017 27.369 19.8354 27.8408C18.1128 28.0119 16.8093 27.5599 15.6068 26.3793C14.1672 24.9639 12.6926 23.6077 11.1301 22.1747C10.9458 22.0058 10.7615 21.8368 10.5771 21.6656C11.1872 21.5274 11.7797 21.3935 12.3656 21.2684C12.5038 21.2399 12.7057 21.3167 13.059 21.534C13.6186 21.8785 14.1606 22.2164 14.6632 22.5917C16.7545 24.1541 19.0937 24.6215 21.8126 24.0181C29.006 22.4183 36.2256 20.4872 43.2105 18.6176C47.336 17.5138 51.602 16.3705 55.8109 15.3128C57.5313 14.8805 59.2913 14.4657 60.8449 14.1014C61.8105 13.8754 62.7409 13.6933 63.5024 13.9676C65.6463 14.7422 67.5182 15.5125 69.2255 16.3244C69.2935 16.3573 69.344 16.3858 69.3813 16.41C69.333 16.4758 69.254 16.5658 69.1289 16.6755H69.1267Z" fill="black"/>
<path d="M48.058 33.0745L45.5783 32.1857C45.7166 31.7973 45.846 31.4001 45.9645 31.0051L48.4903 31.7512C48.3587 32.1945 48.2138 32.64 48.058 33.0745Z" fill="black"/>
<path d="M24.2441 49.48C23.3092 49.4624 22.3678 49.39 21.4484 49.2671L21.7951 46.658C22.618 46.7677 23.4606 46.8313 24.2967 46.8489L24.2441 49.4822V49.48ZM27.0463 49.3791L26.805 46.7567C27.6366 46.6799 28.4705 46.5548 29.2847 46.3859L29.8223 48.9643C28.9116 49.153 27.979 49.2935 27.0463 49.3791ZM18.6922 48.7405C17.7859 48.5123 16.8839 48.2314 16.0128 47.9022L16.941 45.4379C17.72 45.7319 18.5254 45.9843 19.3329 46.1862L18.6922 48.7405ZM32.5324 48.2358L31.7051 45.7363C32.4951 45.4752 33.2785 45.1657 34.0334 44.8146L35.1394 47.2044C34.2924 47.5972 33.4146 47.9439 32.5302 48.2379L32.5324 48.2358ZM13.4453 46.7633C12.6158 46.3376 11.8016 45.8592 11.0248 45.3413L12.4863 43.1513C13.1797 43.6143 13.9083 44.0422 14.6478 44.4218L13.4453 46.7633ZM37.6147 45.8811L36.2432 43.6318C36.9542 43.1995 37.6476 42.719 38.306 42.2077L39.9211 44.288C39.1837 44.8607 38.4069 45.3962 37.6125 45.8811H37.6147ZM8.78211 43.656C8.06892 43.0547 7.38426 42.4074 6.74348 41.7293L8.65703 39.9211C9.22977 40.5267 9.84202 41.1061 10.4806 41.6437L8.78211 43.656ZM42.0365 42.4447L40.1976 40.5596C40.7944 39.9759 41.365 39.3527 41.8917 38.7075L43.9325 40.3731C43.3444 41.0951 42.7058 41.7907 42.0387 42.4425L42.0365 42.4447ZM4.93527 39.5853C4.37569 38.8392 3.85122 38.0558 3.37942 37.2504L5.65066 35.9162C6.07199 36.6338 6.5394 37.336 7.04193 38.0031L4.93747 39.5853H4.93527ZM45.5805 38.1041L43.3663 36.6799C43.8184 35.9777 44.2331 35.2447 44.6018 34.4964L46.963 35.6617C46.5504 36.4977 46.0852 37.3207 45.5805 38.1041ZM2.10007 34.7554C1.72043 33.9017 1.38907 33.0174 1.11038 32.1286L3.623 31.343C3.87097 32.1374 4.16942 32.9252 4.50736 33.6889L2.10007 34.7576V34.7554ZM0.425719 29.4075C0.250165 28.4925 0.127277 27.5576 0.0548607 26.6272L2.68159 26.4275C2.74523 27.2592 2.85715 28.0953 3.01295 28.9138L0.425719 29.4097V29.4075ZM2.63112 23.9193L0 23.8249C0.0329164 22.8923 0.120694 21.9509 0.258943 21.0314L2.86373 21.422C2.74084 22.2449 2.66404 23.0832 2.63332 23.9193H2.63112ZM3.37284 18.9686L0.829494 18.284C1.07088 17.3821 1.36932 16.4867 1.71166 15.6178L4.16064 16.5877C3.85342 17.3623 3.58789 18.1633 3.37284 18.9686ZM5.21616 14.3143L2.89445 13.0722C3.33334 12.2493 3.82489 11.4439 4.35594 10.6759L6.52185 12.1725C6.04785 12.8594 5.60896 13.5791 5.21616 14.3143ZM8.06234 10.1931L6.07857 8.46172C6.69082 7.7595 7.34915 7.08362 8.0382 6.45601L9.81568 8.39808C9.20124 8.96205 8.61094 9.56552 8.06234 10.1931ZM41.3167 10.068C40.7637 9.44483 40.169 8.84355 39.5502 8.28617L41.3123 6.33093C42.0058 6.95634 42.6685 7.62564 43.2873 8.32347L41.3167 10.0702V10.068ZM11.7556 6.80931L10.2085 4.67852C10.9634 4.12992 11.7556 3.62081 12.5675 3.16217L13.8644 5.45316C13.1402 5.86352 12.4292 6.31996 11.7556 6.80931ZM37.5928 6.71057C36.9147 6.2256 36.2015 5.77354 35.473 5.36977L36.7523 3.06781C37.5664 3.51986 38.3652 4.02458 39.1245 4.56661L37.5928 6.70837V6.71057ZM16.1115 4.34497L15.0845 1.92013C15.9425 1.55585 16.8313 1.23766 17.7266 0.974327L18.4727 3.50011C17.6739 3.73711 16.8796 4.02019 16.1137 4.34497H16.1115ZM33.2171 4.27914C32.449 3.96095 31.6525 3.68225 30.8515 3.45184L31.5778 0.919466C32.4754 1.17621 33.3663 1.48782 34.2287 1.84552L33.2193 4.27694L33.2171 4.27914ZM20.9129 2.92956L20.4609 0.335748C21.3781 0.175554 22.3152 0.0658329 23.2478 0.0109721L23.4058 2.6399C22.5719 2.69037 21.7336 2.78693 20.9151 2.92956H20.9129ZM28.4069 2.90104C27.5862 2.76498 26.7479 2.67282 25.914 2.62893L26.0501 0C26.9827 0.0482774 27.9219 0.151416 28.8392 0.302831L28.4069 2.90104Z" fill="black"/>
<path d="M43.577 13.1051C43.3598 12.754 43.1293 12.4051 42.8945 12.0671L45.0538 10.5596C45.3172 10.937 45.5761 11.3276 45.8175 11.7204L43.5792 13.1051H43.577Z" fill="black"/>
</g>
<defs>
<clipPath id="clip0_70_137">
<rect width="71.6306" height="49.48" fill="white"/>
</clipPath>
</defs>
</svg>
