<svg width="70" height="46" viewBox="0 0 70 46" fill="none" xmlns="http://www.w3.org/2000/svg">
<g clip-path="url(#clip0_70_80)">
<path d="M69.9789 5.70689C69.931 4.06298 69.8035 2.61688 69.5909 1.29106C69.4846 0.62013 69.0673 0.176408 68.4162 0.0427574C67.7651 -0.0908936 67.2044 0.141659 66.8403 0.70032C66.5878 1.08524 66.2742 1.42471 65.9075 1.70538C65.3839 2.10633 64.7647 2.44046 63.9037 2.78795C62.1045 3.50966 60.1831 3.98546 58.3202 4.44789L57.7621 4.58689C55.0035 5.27386 51.8729 6.05171 49.0028 7.41495C46.0582 8.81026 43.972 10.6546 42.6246 13.0497C41.4394 15.156 40.8946 17.1795 40.9584 19.2404C41.0275 21.5151 41.7663 23.6108 43.2199 25.6449C43.3581 25.8401 43.5495 26.1047 43.5601 26.1662C43.5415 26.233 43.3369 26.4522 43.1562 26.6447L43.1243 26.6767C39.8342 30.1677 37.3919 33.7816 35.6619 37.7216C35.436 38.2375 35.226 38.7508 35.0054 39.2907C33.201 34.6316 30.453 30.4056 26.6076 26.38C26.5438 26.3132 26.4587 26.225 26.4083 26.1689C26.4508 26.102 26.5305 25.9951 26.5916 25.9149C29.6133 21.8813 29.8418 17.0886 27.2188 12.769C25.8076 10.4462 23.6949 8.6579 20.7583 7.29733C18.2682 6.14526 15.6319 5.43691 12.9212 4.75262C12.5597 4.66174 12.201 4.57353 11.8395 4.48532L11.7385 4.46126C9.84371 3.99615 7.88509 3.51234 6.05138 2.76924C4.94583 2.32017 3.82169 1.75082 3.10415 0.630822C2.77727 0.117602 2.20324 -0.0989126 1.56808 0.0427574C0.948871 0.181754 0.542266 0.609438 0.41736 1.24562C0.380155 1.44342 0.353579 1.63588 0.329661 1.8123C-0.0423966 4.76064 -0.100863 7.76244 0.15692 10.7348C0.552896 15.3137 1.58934 19.1442 3.31941 22.448C4.97241 25.5995 6.9204 28.0319 9.27765 29.879C12.2701 32.2232 15.5415 32.7792 19.007 31.5309C20.9496 30.8279 22.7116 29.7908 24.2423 28.4463C24.2583 28.4302 24.2742 28.4195 24.2875 28.4088C24.2955 28.4169 24.3035 28.4276 24.3141 28.4382C24.5745 28.7376 24.8456 29.0317 25.1167 29.323C25.3612 29.5876 25.6402 29.887 25.898 30.1837C29.8498 34.7332 32.3452 39.5072 33.5332 44.7811C33.6953 45.5001 34.2985 46.0027 34.9975 46.0027H35.0453C35.7655 45.9786 36.3209 45.4921 36.4937 44.7303C37.8251 38.8309 40.8441 33.4956 45.718 28.4169C46.5977 29.2268 47.6421 29.9405 48.9975 30.6569C50.988 31.71 52.8323 32.2126 54.6395 32.1805C57.0764 32.1404 59.354 31.1808 61.4056 29.3257C65.065 26.0165 67.5791 21.7504 68.8733 16.6529C69.737 13.2501 70.1011 9.67098 69.9815 5.71223L69.9789 5.70689ZM47.8946 26.2972C51.4265 23.1403 55.2029 20.5315 59.1121 18.5454C59.9599 18.115 60.2814 17.2624 59.8934 16.4738C59.5187 15.7093 58.671 15.434 57.8312 15.8082C57.7488 15.8457 57.6664 15.8857 57.5867 15.9258C54.0256 17.7061 50.5362 20.0236 47.2142 22.8169C46.7864 23.1751 46.2841 23.6054 45.7898 24.0705C43.5601 21.1062 43.3794 17.7007 45.2822 14.4744C46.4276 12.5338 48.1922 11.0823 50.8365 9.90887C53.2283 8.84769 55.8114 8.19814 58.3095 7.56731L59.447 7.2813C61.4667 6.77877 63.5529 6.25753 65.5221 5.39949C65.9633 5.20703 66.4071 4.97715 66.9067 4.68579C66.9785 5.71758 66.9811 6.6665 66.9758 7.39089C66.9466 10.4622 66.6091 13.2448 65.9473 15.8964C64.871 20.2 62.7636 23.8834 59.6808 26.8398C58.6231 27.8555 57.5229 28.5265 56.3217 28.8953C54.8866 29.3337 53.4276 29.2535 51.857 28.6441C50.4698 28.1068 49.1702 27.345 47.8866 26.3159C47.8866 26.3159 47.8866 26.3159 47.8839 26.3159C47.8893 26.3132 47.8919 26.3079 47.8972 26.3025L47.8946 26.2972ZM10.1121 16.4658C9.70551 17.2811 10.051 18.1204 10.9971 18.6015C14.9117 20.601 18.6482 23.1938 22.1057 26.3105C20.2029 27.8261 18.4781 28.6975 16.6922 29.0477C14.7921 29.4192 12.9584 28.9328 11.2389 27.5962C9.09428 25.9283 7.32435 23.6776 5.82814 20.7132C4.30271 17.69 3.44432 14.2258 3.12807 9.81532C3.00848 8.14736 3.0005 6.42326 3.10415 4.68579C4.89534 5.74698 6.85396 6.31634 8.87104 6.85094C9.64439 7.05676 10.4231 7.25189 11.2017 7.44435L11.2602 7.45772C13.07 7.90946 14.9436 8.37991 16.7401 8.97599C18.5552 9.57742 20.644 10.3873 22.4007 11.8094C24.5825 13.5789 25.8741 15.8991 26.0362 18.3423C26.0575 20.5341 25.5127 22.2529 24.2211 24.0625C21.8745 21.9375 19.3179 19.9995 16.6231 18.3022C15.0578 17.3158 13.6467 16.5219 12.3046 15.8751C11.3904 15.434 10.5108 15.6746 10.1148 16.4711L10.1121 16.4658Z" fill="black"/>
</g>
<defs>
<clipPath id="clip0_70_80">
<rect width="70" height="46" fill="white"/>
</clipPath>
</defs>
</svg>
