<svg width="62" height="53" viewBox="0 0 62 53" fill="none" xmlns="http://www.w3.org/2000/svg">
<g clip-path="url(#clip0_70_128)">
<path d="M61.406 35.5972C61.0397 34.1597 60.1528 33.0079 58.9089 32.3491C57.6074 31.6604 56.0571 31.5797 54.5436 32.1257C51.2127 33.3258 47.8287 34.5583 44.5576 35.7515C43.0833 36.2882 41.609 36.825 40.1348 37.3617C40.0864 37.3801 40.0357 37.3986 39.9873 37.4193C39.8583 37.4723 39.7132 37.5322 39.6533 37.5022C39.6349 37.493 39.5727 37.4515 39.5105 37.2488C39.1028 35.9335 38.2044 34.9476 36.7669 34.2358C33.3346 32.5357 29.6857 30.7113 25.2882 28.4906C24.733 28.2096 24.1641 28.0829 23.4891 28.0829C21.8052 28.0898 20.119 28.0898 18.4351 28.0898C16.9354 28.0898 15.4358 28.0898 13.9362 28.0944C13.4547 28.0944 13.3649 28.0829 13.3626 27.666C13.3557 26.4589 12.971 26.0903 11.7224 26.088C10.7434 26.088 9.76671 26.088 8.78769 26.0926C6.53939 26.0995 4.21509 26.1064 1.93224 26.0604C1.53142 26.0581 1.26421 26.1272 1.08913 26.2999C0.858776 26.5257 0.858776 26.8436 0.86108 27.1822V27.4033C0.856473 27.765 0.851866 28.1059 1.09144 28.3432C1.26651 28.5183 1.53372 28.5943 1.93224 28.5851C3.90871 28.539 5.92204 28.5482 7.86856 28.5574C8.61722 28.5597 9.36588 28.5643 10.1145 28.5643C10.4716 28.5643 10.7803 28.5643 10.8402 28.6265C10.9024 28.691 10.9024 29.0158 10.9024 29.3913V38.3845C10.9024 39.2 10.9024 40.0177 10.8978 40.8332C10.8932 42.9778 10.8862 45.1962 10.9208 47.38C10.9277 47.7485 10.8862 47.9559 10.7872 48.0526C10.6904 48.1494 10.4877 48.1908 10.1491 48.1839C8.6011 48.154 7.02775 48.1563 5.50509 48.1586C4.2888 48.1586 3.03335 48.1632 1.79633 48.1494C1.53603 48.1424 1.21353 48.1724 1.01312 48.3958C0.817312 48.6147 0.831133 48.9234 0.856473 49.1376C0.877205 49.3011 0.877205 49.4394 0.858776 49.5545C0.801187 49.93 0.847258 50.1926 1.00851 50.3792C1.22735 50.6326 1.60283 50.6672 1.93685 50.6603C4.25885 50.6372 6.62232 50.6395 8.90517 50.6441C9.79205 50.6441 10.6789 50.6441 11.5681 50.6464C12.9756 50.6464 13.2774 50.3654 13.3695 48.9809C13.3718 48.9464 13.3741 48.9118 13.3741 48.8773C13.3764 48.8082 13.381 48.6815 13.4017 48.6561C13.4017 48.6561 13.4271 48.64 13.51 48.6446C13.9869 48.6677 14.4706 48.6538 14.9382 48.6423C15.9173 48.617 16.841 48.5916 17.7647 48.8589C19.8886 49.4716 22.0125 50.0751 24.1387 50.6787C26.2327 51.273 28.3266 51.8696 30.4206 52.4709C30.6694 52.5423 30.9112 52.5791 31.1485 52.5791C31.4756 52.5791 31.7958 52.51 32.1252 52.3718C34.6591 51.3122 37.2415 50.2456 39.7362 49.2159L47.1215 46.166C50.8256 44.6364 54.5275 43.1091 58.2293 41.5749C60.7264 40.5406 62.0256 38.085 61.3922 35.6018L61.406 35.5972ZM13.381 40.3218C13.381 39.6492 13.381 38.9765 13.381 38.3039C13.381 37.698 13.381 37.0945 13.3833 36.4886C13.3879 34.7402 13.3902 32.9319 13.3695 31.1536C13.3649 30.8564 13.3925 30.709 13.4593 30.6422C13.5238 30.5777 13.6782 30.5454 13.9108 30.55C16.5922 30.5846 19.315 30.5754 21.9503 30.5685L23.3878 30.5638H23.3924C23.7264 30.5638 24.0328 30.6399 24.3576 30.8011C26.159 31.7041 27.965 32.6048 29.7687 33.5055C31.7705 34.503 33.7723 35.5027 35.7718 36.5071C37.1286 37.1889 37.663 38.5573 37.071 39.8334C36.4951 41.0751 35.0715 41.5588 33.6847 40.9806L31.8304 40.2089C29.718 39.3313 27.5342 38.426 25.3965 37.5068C25.1316 37.3917 24.8229 37.2926 24.5465 37.4101C24.27 37.5276 24.1272 37.8247 24.0351 38.0735L24.0005 38.168C23.5582 39.3382 23.6204 39.4718 24.8413 39.9809C27.0136 40.8862 29.1882 41.7892 31.3627 42.6922C31.5217 42.759 31.6829 42.8258 31.8419 42.8949C32.268 43.0769 32.7103 43.2635 33.1572 43.4224C35.675 44.3139 38.3472 43.1529 39.3723 40.7226C39.5381 40.331 39.7547 40.1283 40.1739 39.9786C43.4358 38.8014 46.693 37.6174 49.9526 36.4311C51.7471 35.7791 53.5416 35.1249 55.3361 34.473C56.9186 33.8971 58.3537 34.4638 58.9089 35.8759C59.4525 37.2627 58.7523 38.677 57.2112 39.3128L52.0834 41.4321C45.4261 44.1826 38.5407 47.0252 31.7728 49.8333C31.3259 50.0199 30.9343 50.0383 30.4597 49.9024C29.0615 49.4969 27.6379 49.0961 26.2603 48.7091C23.8669 48.0342 21.3906 47.3385 18.9718 46.6014C17.5989 46.1821 16.2167 46.1706 14.8783 46.1591L14.4637 46.1545C14.4015 46.1545 14.3439 46.1545 14.2863 46.1545C14.1642 46.1545 14.056 46.1545 13.9569 46.1568C13.715 46.1591 13.4639 46.1637 13.4179 46.1291C13.3787 46.0761 13.381 45.7928 13.3856 45.5187C13.3856 45.3828 13.3879 45.2261 13.3856 45.0464C13.3764 43.4731 13.3787 41.8698 13.381 40.3218Z" fill="black"/>
<path d="M42.2333 30.5638H42.261C46.3337 30.5569 50.1691 28.9652 53.0624 26.0811C55.9557 23.197 57.5429 19.38 57.536 15.3303C57.5291 11.2023 55.9373 7.3415 53.0532 4.45742C50.1761 1.58256 46.3406 0 42.2448 0H42.208C38.1214 0.00921431 34.2883 1.6102 31.4111 4.5081C28.534 7.40369 26.956 11.253 26.9675 15.3464C26.9906 23.743 33.8368 30.5662 42.2356 30.5662L42.2333 30.5638ZM29.4485 15.222C29.4853 8.17309 35.2489 2.46252 42.3093 2.46252C42.3301 2.46252 42.3485 2.46252 42.3692 2.46252C45.7509 2.47865 48.939 3.82624 51.344 6.26112C53.7673 8.71213 55.0919 11.9487 55.0689 15.3718C55.0228 22.3908 49.2708 28.0829 42.2333 28.0829H42.1803C38.7711 28.0691 35.5668 26.7215 33.1595 24.2912C30.7477 21.8586 29.4301 18.6382 29.4485 15.222Z" fill="black"/>
<path d="M8.23481 32.5771H8.24172C8.36381 32.6048 8.47439 32.6163 8.57574 32.6163C8.78537 32.6163 8.95583 32.5587 9.09174 32.4458C9.3198 32.2546 9.41655 31.9206 9.3866 31.4276C9.37969 31.294 9.37278 31.1765 9.36817 31.0752C9.32901 30.2643 9.26912 30.133 8.52737 30.1077C8.40067 30.1031 8.24633 30.0985 8.05513 30.0846C7.61054 30.0501 7.31338 30.1238 7.11988 30.315C6.86879 30.5615 6.85497 30.9462 6.8757 31.3263L6.88261 31.4345C6.94251 32.5264 7.09224 32.5794 8.23481 32.5794V32.5771Z" fill="black"/>
<path d="M41.3073 16.5144C41.6206 16.5259 41.9385 16.5236 42.2449 16.519C42.595 16.5167 42.9567 16.5121 43.3091 16.5305C44.2997 16.5812 45.0022 17.2976 45.0161 18.2697C45.0299 19.2004 44.3596 19.9421 43.4197 20.0296C42.754 20.0918 42.0859 20.0849 41.2866 20.055C40.3559 20.0204 39.7754 19.5758 39.5589 18.7327C39.423 18.2029 39.1235 17.9887 38.5891 18.0463C38.3518 18.0716 38.1675 18.0716 38.0063 18.0463C37.617 17.9864 37.3475 18.0463 37.1816 18.2282C36.9536 18.477 37.0157 18.8663 37.0941 19.175C37.541 20.9465 38.6029 22.043 40.167 22.3447C40.9894 22.5037 41.1046 22.7916 41.0194 23.5242C41.0148 23.5564 41.0101 23.591 41.0055 23.6278C40.9687 23.8651 40.8904 24.3604 41.3764 24.4802C41.7035 24.5608 42.0099 24.6022 42.2932 24.6022C42.6157 24.6022 42.9106 24.5493 43.1732 24.4433C43.6178 24.2659 43.5464 23.7753 43.5026 23.4827C43.4911 23.4067 43.4796 23.333 43.4773 23.2685C43.4519 22.7133 43.4957 22.5244 44.1269 22.4069C45.3708 22.1766 46.4236 21.4072 47.0179 20.2946C47.6214 19.1635 47.6721 17.8343 47.1561 16.6503C46.3452 14.7821 44.7742 13.8791 42.6065 14.0334C42.413 14.0334 42.2403 14.0334 42.079 14.038C41.7703 14.0427 41.5031 14.045 41.2451 14.0311C40.2315 13.9805 39.4737 13.218 39.4806 12.262C39.4875 11.2853 40.2361 10.5435 41.2589 10.4974C41.95 10.4652 42.6411 10.4813 43.1663 10.4974C44.1338 10.5274 44.6867 10.9466 44.9539 11.8543C45.099 12.3426 45.3685 12.5407 45.8615 12.5085C46.1748 12.49 46.4535 12.49 46.7138 12.5085C46.9994 12.5292 47.2022 12.4693 47.3335 12.3265C47.5108 12.133 47.4947 11.8473 47.4556 11.5963C47.1791 9.83171 45.7832 8.37816 44.1384 8.13858C43.5326 8.05105 43.4589 7.8898 43.4819 7.29778C43.5026 6.75183 43.5141 6.42242 43.3114 6.21279C43.1202 6.01469 42.8254 6.00778 42.2978 6.00778C42.2426 6.00778 42.185 6.00778 42.1297 6.01008C42.0652 6.01008 42.003 6.01469 41.9546 6.00778C41.6252 5.9594 41.3741 6.01469 41.2083 6.17363C41.0378 6.33719 40.9687 6.58367 41.0009 6.93151C41.0102 7.03978 41.0078 7.15496 41.0055 7.27474C41.0032 7.39683 40.9986 7.52123 41.0102 7.65023C41.0332 7.93126 40.9894 8.01649 40.6439 8.081C38.361 8.50025 36.8361 10.3846 37.0157 12.5591C37.2046 14.8397 38.9277 16.4292 41.3073 16.5144Z" fill="black"/>
<path d="M33.4613 15.5146C33.4659 15.434 33.4705 15.3533 33.4798 15.2681C33.5281 14.7982 33.4567 14.4849 33.2586 14.2799C32.9983 14.0104 32.5814 13.9988 32.2082 14.0242L32.0746 14.0334C31.0449 14.1002 30.985 14.2407 30.985 15.3142C30.985 16.3462 31.084 16.4498 32.1414 16.5282L32.3579 16.5443C32.4224 16.5489 32.4823 16.5512 32.5399 16.5512C32.8278 16.5512 33.0352 16.489 33.1849 16.3577C33.4245 16.1481 33.4429 15.8279 33.4613 15.5169V15.5146Z" fill="black"/>
<path d="M51.0514 15.404C51.1182 16.3761 51.215 16.4705 52.194 16.5281L52.3 16.535C52.3645 16.5397 52.4313 16.542 52.4981 16.542C52.7814 16.542 53.0878 16.4959 53.2951 16.2886C53.4909 16.0928 53.5692 15.7887 53.5393 15.3326L53.5301 15.199C53.4656 14.1347 53.3642 14.0403 52.194 14.0403C51.8185 13.9527 51.5352 13.9942 51.3325 14.1647C51.0929 14.3674 50.9984 14.7152 51.0399 15.2635L51.0491 15.4063L51.0514 15.404Z" fill="black"/>
</g>
<defs>
<clipPath id="clip0_70_128">
<rect width="60.72" height="52.5722" fill="white" transform="translate(0.844971)"/>
</clipPath>
</defs>
</svg>
