<svg width="62" height="43" viewBox="0 0 62 43" fill="none" xmlns="http://www.w3.org/2000/svg">
<g clip-path="url(#clip0_70_70)">
<path d="M60.012 33.0136C56.9114 28.0839 51.769 25.8196 45.9003 26.7977C45.8294 26.8099 45.7536 26.8246 45.6778 26.8417C45.2107 26.9419 45.0493 26.9468 44.9344 26.602C44.6385 25.7169 44.213 24.8806 43.7558 24.0027C47.9861 26.1643 51.8619 25.6973 54.4734 22.6725C56.9554 19.7993 56.9945 15.6986 54.5663 12.6982C52.1626 9.72964 47.9445 8.91781 44.5358 10.7689C41.0342 12.6713 39.8091 16.1363 41.0366 20.5793C34.5175 15.6301 27.8126 15.5494 21.0881 20.3421C22.0026 15.4663 20.6552 12.2532 16.9849 10.5292C13.5493 8.91781 9.55124 9.90081 7.26002 12.9207C5.05927 15.8184 5.19865 19.9362 7.59013 22.7116C10.1552 25.6875 13.9014 26.1448 18.1928 24.0223C18.1537 24.103 18.1146 24.1837 18.0755 24.2619C17.7698 24.8904 17.4813 25.4821 17.2905 26.1057C17.0754 26.8099 16.8357 26.9468 16.0679 26.805C9.0035 25.5066 2.45505 29.5657 0.49638 36.4638C0.031777 38.1046 -0.105158 39.5987 0.0806826 41.0316C0.188275 41.8728 0.7189 42.3521 1.53318 42.3521H1.55029C2.43548 42.3447 2.98812 41.8263 3.06881 40.9289C3.09326 40.6551 3.09571 40.3812 3.09571 40.1171C3.09571 39.9361 3.09571 39.7552 3.10549 39.5767C3.24243 36.635 4.66313 33.8547 7.00326 31.945C9.29938 30.0719 12.2288 29.2527 15.0409 29.6953C16.0924 29.8616 16.3711 30.1942 16.3369 31.2481C16.2342 34.356 16.266 37.4591 16.3051 39.8163C16.3222 40.8849 16.7697 41.7628 17.5326 42.22C17.8945 42.4377 18.3053 42.5477 18.7357 42.5477C19.1661 42.5477 19.6453 42.4303 20.1002 42.198C20.3545 42.0684 20.5917 41.9119 20.8215 41.7603C20.9316 41.687 21.0416 41.6136 21.1541 41.5451C27.8517 37.3759 34.5958 37.4591 41.1956 41.7921C42.0539 42.357 43.0931 42.8534 44.2888 42.2592C45.5482 41.6332 45.7047 40.4325 45.69 39.3419C45.6753 38.1927 45.6753 37.0214 45.6729 35.8892C45.6704 34.2558 45.668 32.5661 45.6289 30.9057C45.6117 30.1453 45.8074 29.9056 46.5385 29.7882C50.16 29.2063 53.3193 30.2235 55.9308 32.8082C57.9677 34.8255 58.963 37.4175 58.9752 40.7333C58.9752 41.2713 59.1341 41.7041 59.43 41.9902C59.7088 42.2592 60.0902 42.3888 60.5646 42.3716C61.4498 42.3423 61.9266 41.7897 61.9804 40.726C62.1198 37.909 61.4596 35.3121 60.012 33.0136ZM13.5688 22.291C12.2337 22.2861 10.9988 21.7726 10.0892 20.8459C9.21624 19.9558 8.74674 18.7796 8.76386 17.535C8.80054 14.9356 10.9133 12.8963 13.5688 12.8914H13.5786C14.8991 12.8914 16.1339 13.3976 17.0558 14.317C17.9434 15.2022 18.4325 16.371 18.4325 17.6108C18.4325 18.8603 17.9532 20.0243 17.0827 20.8923C16.1682 21.802 14.9186 22.2886 13.5664 22.2935L13.5688 22.291ZM43.5479 17.5765C43.5602 14.9894 45.756 12.8889 48.4458 12.8889H48.4629C49.7687 12.8938 50.9816 13.3951 51.8741 14.3048C52.7617 15.2046 53.241 16.4101 53.2263 17.6988C53.197 20.2859 51.0843 22.3057 48.414 22.3057H48.392C47.0593 22.3008 45.8294 21.8118 44.9295 20.9315C44.0296 20.0536 43.5381 18.8627 43.5455 17.5765H43.5479ZM42.6603 39.0216C38.765 36.5983 34.9063 35.3855 31.0306 35.3855C27.1548 35.3855 23.3279 36.5788 19.4008 38.9605C19.413 37.9115 19.3886 36.8747 19.3641 35.8672C19.3055 33.417 19.2492 31.1014 19.6967 28.7857C20.7237 23.4623 25.3282 19.9607 31.2311 19.9607C31.3802 19.9607 31.5318 19.9607 31.6859 19.968C37.0875 20.1294 41.7115 24.191 42.4427 29.4117C42.7312 31.4755 42.7019 33.5295 42.6701 35.7034C42.6554 36.7817 42.6383 37.8894 42.6627 39.0192L42.6603 39.0216Z" fill="black"/>
<path d="M30.8447 15.706C30.9058 15.706 30.9645 15.706 31.0257 15.706C33.1555 15.706 35.1411 14.921 36.6351 13.4832C38.1243 12.0478 38.9655 10.1087 38.9997 8.018C39.0731 3.68008 35.5445 0.083078 31.1332 -6.1434e-05C28.9447 -0.0391859 26.9054 0.740857 25.3942 2.19824C23.8854 3.65318 23.0345 5.65586 22.9978 7.83705C22.922 12.1554 26.3698 15.6106 30.8447 15.706ZM26.0691 7.8395C26.0911 5.19371 28.2258 3.11767 30.9278 3.11278H30.9401C32.329 3.11278 33.6005 3.61895 34.5224 4.54082C35.3954 5.41378 35.8746 6.59241 35.8722 7.86151C35.8673 10.5293 33.7668 12.642 31.0941 12.6689C29.693 12.6934 28.4043 12.1676 27.4531 11.2189C26.5508 10.319 26.0617 9.11838 26.0715 7.84194L26.0691 7.8395Z" fill="black"/>
</g>
<defs>
<clipPath id="clip0_70_70">
<rect width="62" height="42.5503" fill="white"/>
</clipPath>
</defs>
</svg>
